<mxfile host="app.diagrams.net" modified="2021-06-06T03:05:21.421Z" agent="5.0 (Macintosh; Intel Mac OS X 10_15_7) AppleWebKit/537.36 (KHTML, like Gecko) Chrome/90.0.4430.212 Safari/537.36" etag="NfWKuIodbSrbHI68KFwq" version="14.4.3" type="github">
  <diagram id="jKz_ouc91RwMk62xT5qU" name="Page-1">
    <mxGraphModel dx="1426" dy="946" grid="1" gridSize="10" guides="1" tooltips="1" connect="1" arrows="1" fold="1" page="1" pageScale="1" pageWidth="827" pageHeight="1169" math="0" shadow="0">
      <root>
        <mxCell id="0" />
        <mxCell id="1" parent="0" />
        <mxCell id="SMJrcIVjASaq3GEdLJhy-2" value="" style="shape=umlLifeline;participant=umlActor;perimeter=lifelinePerimeter;whiteSpace=wrap;html=1;container=1;collapsible=0;recursiveResize=0;verticalAlign=top;spacingTop=36;outlineConnect=0;" vertex="1" parent="1">
          <mxGeometry x="220" y="120" width="20" height="560" as="geometry" />
        </mxCell>
        <mxCell id="SMJrcIVjASaq3GEdLJhy-6" value="" style="endArrow=open;endFill=1;endSize=12;html=1;" edge="1" parent="SMJrcIVjASaq3GEdLJhy-2" target="SMJrcIVjASaq3GEdLJhy-3">
          <mxGeometry width="160" relative="1" as="geometry">
            <mxPoint x="10" y="120" as="sourcePoint" />
            <mxPoint x="170" y="120" as="targetPoint" />
          </mxGeometry>
        </mxCell>
        <mxCell id="SMJrcIVjASaq3GEdLJhy-10" value="去不去？" style="edgeLabel;html=1;align=center;verticalAlign=middle;resizable=0;points=[];" vertex="1" connectable="0" parent="SMJrcIVjASaq3GEdLJhy-6">
          <mxGeometry x="-0.1271" y="1" relative="1" as="geometry">
            <mxPoint as="offset" />
          </mxGeometry>
        </mxCell>
        <mxCell id="SMJrcIVjASaq3GEdLJhy-3" value="" style="shape=umlLifeline;participant=umlActor;perimeter=lifelinePerimeter;whiteSpace=wrap;html=1;container=1;collapsible=0;recursiveResize=0;verticalAlign=top;spacingTop=36;outlineConnect=0;" vertex="1" parent="1">
          <mxGeometry x="610" y="110" width="20" height="560" as="geometry" />
        </mxCell>
        <mxCell id="SMJrcIVjASaq3GEdLJhy-4" value="勋勋" style="text;html=1;align=center;verticalAlign=middle;resizable=0;points=[];autosize=1;" vertex="1" parent="1">
          <mxGeometry x="180" y="110" width="40" height="20" as="geometry" />
        </mxCell>
        <mxCell id="SMJrcIVjASaq3GEdLJhy-5" value="杨晨" style="text;html=1;align=center;verticalAlign=middle;resizable=0;points=[];autosize=1;" vertex="1" parent="1">
          <mxGeometry x="640" y="100" width="40" height="20" as="geometry" />
        </mxCell>
        <mxCell id="SMJrcIVjASaq3GEdLJhy-13" value="" style="endArrow=open;endFill=1;endSize=12;html=1;" edge="1" parent="1">
          <mxGeometry width="160" relative="1" as="geometry">
            <mxPoint x="230" y="370" as="sourcePoint" />
            <mxPoint x="619.5" y="370" as="targetPoint" />
          </mxGeometry>
        </mxCell>
        <mxCell id="SMJrcIVjASaq3GEdLJhy-14" value="我们打车去呢～！" style="edgeLabel;html=1;align=center;verticalAlign=middle;resizable=0;points=[];" vertex="1" connectable="0" parent="SMJrcIVjASaq3GEdLJhy-13">
          <mxGeometry x="-0.1271" y="1" relative="1" as="geometry">
            <mxPoint as="offset" />
          </mxGeometry>
        </mxCell>
        <mxCell id="SMJrcIVjASaq3GEdLJhy-15" value="" style="endArrow=open;endFill=1;endSize=12;html=1;" edge="1" parent="1">
          <mxGeometry width="160" relative="1" as="geometry">
            <mxPoint x="230" y="490" as="sourcePoint" />
            <mxPoint x="619.5" y="490" as="targetPoint" />
          </mxGeometry>
        </mxCell>
        <mxCell id="SMJrcIVjASaq3GEdLJhy-16" value="打车去不去？" style="edgeLabel;html=1;align=center;verticalAlign=middle;resizable=0;points=[];" vertex="1" connectable="0" parent="SMJrcIVjASaq3GEdLJhy-15">
          <mxGeometry x="-0.1271" y="1" relative="1" as="geometry">
            <mxPoint as="offset" />
          </mxGeometry>
        </mxCell>
        <mxCell id="SMJrcIVjASaq3GEdLJhy-17" value="" style="endArrow=open;endFill=1;endSize=12;html=1;" edge="1" parent="1">
          <mxGeometry width="160" relative="1" as="geometry">
            <mxPoint x="230" y="430" as="sourcePoint" />
            <mxPoint x="619.5" y="430" as="targetPoint" />
          </mxGeometry>
        </mxCell>
        <mxCell id="SMJrcIVjASaq3GEdLJhy-18" value="打车去不去？" style="edgeLabel;html=1;align=center;verticalAlign=middle;resizable=0;points=[];" vertex="1" connectable="0" parent="SMJrcIVjASaq3GEdLJhy-17">
          <mxGeometry x="-0.1271" y="1" relative="1" as="geometry">
            <mxPoint as="offset" />
          </mxGeometry>
        </mxCell>
        <mxCell id="SMJrcIVjASaq3GEdLJhy-11" value="" style="endArrow=open;endFill=1;endSize=12;html=1;" edge="1" parent="1">
          <mxGeometry width="160" relative="1" as="geometry">
            <mxPoint x="619.5" y="290" as="sourcePoint" />
            <mxPoint x="230" y="290" as="targetPoint" />
          </mxGeometry>
        </mxCell>
        <mxCell id="SMJrcIVjASaq3GEdLJhy-19" value="不去" style="edgeLabel;html=1;align=center;verticalAlign=middle;resizable=0;points=[];" vertex="1" connectable="0" parent="SMJrcIVjASaq3GEdLJhy-11">
          <mxGeometry x="0.1579" y="1" relative="1" as="geometry">
            <mxPoint x="1" as="offset" />
          </mxGeometry>
        </mxCell>
        <mxCell id="SMJrcIVjASaq3GEdLJhy-20" value="" style="endArrow=open;endFill=1;endSize=12;html=1;" edge="1" parent="1">
          <mxGeometry width="160" relative="1" as="geometry">
            <mxPoint x="230" y="550" as="sourcePoint" />
            <mxPoint x="619.5" y="550" as="targetPoint" />
          </mxGeometry>
        </mxCell>
        <mxCell id="SMJrcIVjASaq3GEdLJhy-21" value="打车去不去？" style="edgeLabel;html=1;align=center;verticalAlign=middle;resizable=0;points=[];" vertex="1" connectable="0" parent="SMJrcIVjASaq3GEdLJhy-20">
          <mxGeometry x="-0.1271" y="1" relative="1" as="geometry">
            <mxPoint as="offset" />
          </mxGeometry>
        </mxCell>
        <mxCell id="SMJrcIVjASaq3GEdLJhy-25" value="。。。。。" style="text;html=1;align=center;verticalAlign=middle;resizable=0;points=[];autosize=1;rotation=90;" vertex="1" parent="1">
          <mxGeometry x="374" y="610" width="80" height="20" as="geometry" />
        </mxCell>
      </root>
    </mxGraphModel>
  </diagram>
</mxfile>
